<svg width="265" height="265" viewBox="0 0 265 265" fill="none" xmlns="http://www.w3.org/2000/svg">
<path d="M84.674 230.75L93.624 214.75H98.024L86.824 230.8C87.2907 230.767 87.6907 230.75 88.024 230.75C88.3907 230.717 88.7074 230.7 88.974 230.7C90.674 230.7 92.0407 230.917 93.074 231.35C94.1074 231.783 94.9074 232.383 95.474 233.15C96.074 233.883 96.4574 234.767 96.624 235.8C96.824 236.8 96.924 237.883 96.924 239.05C96.924 239.65 96.9074 240.3 96.874 241C96.8407 241.7 96.8074 242.4 96.774 243.1C96.774 243.767 96.7574 244.417 96.724 245.05C96.6907 245.683 96.674 246.25 96.674 246.75C96.674 248.25 96.9407 249.433 97.474 250.3C98.0407 251.167 98.724 251.733 99.524 252C98.524 252.3 97.7074 252.517 97.074 252.65C96.4407 252.783 95.824 252.85 95.224 252.85C93.724 252.85 92.6074 252.367 91.874 251.4C91.174 250.433 90.824 249.2 90.824 247.7C90.824 247.067 90.8407 246.35 90.874 245.55C90.9407 244.75 91.0074 243.95 91.074 243.15C91.174 242.317 91.2407 241.517 91.274 240.75C91.3407 239.95 91.374 239.233 91.374 238.6C91.374 237.467 91.2407 236.517 90.974 235.75C90.7407 234.95 90.4074 234.333 89.974 233.9C89.574 233.433 89.074 233.1 88.474 232.9C87.9074 232.7 87.2907 232.6 86.624 232.6C86.0574 232.6 85.4074 232.683 84.674 232.85V252H79.174V217.4C76.874 218.067 75.0407 219.183 73.674 220.75C72.3407 222.283 71.674 224.217 71.674 226.55C71.674 227.617 71.7907 228.65 72.024 229.65C72.2907 230.65 72.874 231.55 73.774 232.35C72.974 232.35 72.2074 232.25 71.474 232.05C70.7407 231.817 70.0907 231.467 69.524 231C68.9907 230.5 68.5574 229.867 68.224 229.1C67.8907 228.333 67.724 227.4 67.724 226.3C67.724 224.7 68.1407 223.2 68.974 221.8C69.8074 220.367 70.9074 219.117 72.274 218.05C73.674 216.95 75.2574 216.083 77.024 215.45C78.824 214.817 80.674 214.5 82.574 214.5C82.9407 214.5 83.2907 214.517 83.624 214.55C83.9907 214.55 84.3407 214.567 84.674 214.6V230.75ZM106.596 227V244C106.596 245.633 106.879 246.8 107.446 247.5C108.013 248.167 108.729 248.5 109.596 248.5C110.063 248.5 110.529 248.383 110.996 248.15C111.463 247.883 111.879 247.517 112.246 247.05C112.613 246.583 112.913 246.017 113.146 245.35C113.379 244.683 113.496 243.917 113.496 243.05V227H118.496V244C118.496 244.567 118.529 245.117 118.596 245.65C118.663 246.183 118.796 246.667 118.996 247.1C119.229 247.5 119.529 247.833 119.896 248.1C120.296 248.367 120.796 248.5 121.396 248.5C122.429 248.5 123.296 248.133 123.996 247.4C124.696 246.633 125.263 245.65 125.696 244.45C126.163 243.25 126.496 241.917 126.696 240.45C126.896 238.95 126.996 237.467 126.996 236C126.996 235.067 126.963 234.15 126.896 233.25C126.829 232.317 126.713 231.483 126.546 230.75C126.379 230.917 126.163 231.033 125.896 231.1C125.629 231.133 125.413 231.15 125.246 231.15C124.446 231.15 123.846 230.867 123.446 230.3C123.046 229.733 122.846 229.133 122.846 228.5C122.846 227.833 123.063 227.25 123.496 226.75C123.929 226.217 124.563 225.95 125.396 225.95C125.963 225.95 126.496 226.117 126.996 226.45C127.529 226.783 127.979 227.317 128.346 228.05C128.746 228.75 129.046 229.683 129.246 230.85C129.479 232.017 129.596 233.45 129.596 235.15C129.596 237.05 129.429 239.017 129.096 241.05C128.796 243.05 128.279 244.883 127.546 246.55C126.813 248.217 125.863 249.6 124.696 250.7C123.529 251.767 122.079 252.3 120.346 252.3C119.046 252.3 117.813 251.967 116.646 251.3C115.479 250.633 114.613 249.667 114.046 248.4C113.379 249.767 112.563 250.767 111.596 251.4C110.663 252 109.679 252.3 108.646 252.3C107.679 252.3 106.763 252.167 105.896 251.9C105.029 251.633 104.279 251.2 103.646 250.6C103.013 249.967 102.513 249.167 102.146 248.2C101.779 247.2 101.596 245.983 101.596 244.55V227H106.596ZM137.798 227V244C137.798 244.333 137.815 244.75 137.848 245.25C137.882 245.75 137.965 246.25 138.098 246.75C138.265 247.217 138.498 247.633 138.798 248C139.098 248.333 139.515 248.5 140.048 248.5C141.682 248.5 142.882 246.683 143.648 243.05H145.498C145.132 245.15 144.665 246.817 144.098 248.05C143.532 249.25 142.932 250.167 142.298 250.8C141.665 251.433 141.015 251.833 140.348 252C139.682 252.2 139.082 252.3 138.548 252.3C137.382 252.3 136.432 252.083 135.698 251.65C134.965 251.183 134.382 250.6 133.948 249.9C133.515 249.2 133.215 248.417 133.048 247.55C132.882 246.683 132.798 245.85 132.798 245.05V227H137.798ZM131.898 219.8C131.898 218.9 132.215 218.117 132.848 217.45C133.482 216.783 134.265 216.45 135.198 216.45C136.098 216.45 136.882 216.783 137.548 217.45C138.215 218.117 138.548 218.9 138.548 219.8C138.548 220.733 138.215 221.517 137.548 222.15C136.882 222.783 136.098 223.1 135.198 223.1C134.265 223.1 133.482 222.783 132.848 222.15C132.215 221.517 131.898 220.733 131.898 219.8ZM148.638 219.4V227H152.488V228.75H148.638V244C148.638 244.4 148.655 244.867 148.688 245.4C148.721 245.9 148.805 246.383 148.938 246.85C149.105 247.317 149.338 247.717 149.638 248.05C149.971 248.35 150.421 248.5 150.988 248.5C151.888 248.5 152.738 248.05 153.538 247.15C154.371 246.25 155.021 244.883 155.488 243.05H157.338C156.771 245.15 156.155 246.817 155.488 248.05C154.855 249.25 154.188 250.167 153.488 250.8C152.788 251.433 152.088 251.833 151.388 252C150.721 252.2 150.105 252.3 149.538 252.3C148.338 252.3 147.355 252.083 146.588 251.65C145.821 251.183 145.221 250.6 144.788 249.9C144.355 249.2 144.055 248.433 143.888 247.6C143.721 246.733 143.638 245.883 143.638 245.05V228.75H141.938V227H143.638V220.1L148.638 219.4ZM160.454 219.4V227H164.304V228.75H160.454V244C160.454 244.4 160.471 244.867 160.504 245.4C160.538 245.9 160.621 246.383 160.754 246.85C160.921 247.317 161.154 247.717 161.454 248.05C161.788 248.35 162.238 248.5 162.804 248.5C163.704 248.5 164.554 248.05 165.354 247.15C166.188 246.25 166.838 244.883 167.304 243.05H169.154C168.588 245.15 167.971 246.817 167.304 248.05C166.671 249.25 166.004 250.167 165.304 250.8C164.604 251.433 163.904 251.833 163.204 252C162.538 252.2 161.921 252.3 161.354 252.3C160.154 252.3 159.171 252.083 158.404 251.65C157.638 251.183 157.038 250.6 156.604 249.9C156.171 249.2 155.871 248.433 155.704 247.6C155.538 246.733 155.454 245.883 155.454 245.05V228.75H153.754V227H155.454V220.1L160.454 219.4ZM182.871 233.25C182.871 235.583 181.904 237.533 179.971 239.1C178.071 240.667 175.421 241.633 172.021 242C172.154 243.333 172.388 244.417 172.721 245.25C173.088 246.083 173.521 246.75 174.021 247.25C174.521 247.717 175.088 248.05 175.721 248.25C176.388 248.417 177.071 248.5 177.771 248.5C179.371 248.5 180.871 248.083 182.271 247.25C183.671 246.417 184.804 245.017 185.671 243.05H187.271C186.838 244.283 186.238 245.467 185.471 246.6C184.704 247.7 183.804 248.683 182.771 249.55C181.738 250.383 180.621 251.05 179.421 251.55C178.221 252.05 176.988 252.3 175.721 252.3C174.554 252.3 173.421 252.1 172.321 251.7C171.254 251.3 170.304 250.65 169.471 249.75C168.638 248.817 167.954 247.617 167.421 246.15C166.921 244.683 166.671 242.883 166.671 240.75C166.671 239.35 166.821 237.833 167.121 236.2C167.454 234.567 167.988 233.05 168.721 231.65C169.488 230.25 170.471 229.083 171.671 228.15C172.904 227.217 174.421 226.75 176.221 226.75C177.054 226.75 177.854 226.85 178.621 227.05C179.421 227.217 180.138 227.55 180.771 228.05C181.404 228.517 181.904 229.167 182.271 230C182.671 230.833 182.871 231.917 182.871 233.25ZM171.971 240.05C174.338 239.683 176.204 238.85 177.571 237.55C178.971 236.25 179.671 234.65 179.671 232.75C179.671 231.483 179.454 230.583 179.021 230.05C178.588 229.483 177.971 229.2 177.171 229.2C176.304 229.2 175.538 229.533 174.871 230.2C174.238 230.867 173.704 231.733 173.271 232.8C172.838 233.833 172.504 235 172.271 236.3C172.071 237.567 171.971 238.817 171.971 240.05ZM190.629 227V231.2C191.029 230.6 191.412 230.033 191.779 229.5C192.179 228.967 192.612 228.5 193.079 228.1C193.546 227.7 194.062 227.383 194.629 227.15C195.196 226.883 195.829 226.75 196.529 226.75C197.662 226.75 198.496 227.05 199.029 227.65C199.562 228.217 199.829 228.917 199.829 229.75C199.829 230.25 199.746 230.667 199.579 231C199.412 231.333 199.212 231.6 198.979 231.8C198.746 232 198.496 232.15 198.229 232.25C197.962 232.317 197.729 232.35 197.529 232.35C197.229 232.35 196.979 232.283 196.779 232.15C196.612 232.017 196.429 231.883 196.229 231.75C196.062 231.583 195.862 231.433 195.629 231.3C195.396 231.167 195.096 231.1 194.729 231.1C193.962 231.1 193.229 231.367 192.529 231.9C191.829 232.433 191.196 233 190.629 233.6V252H185.629V227H190.629Z" fill="black"/>
<path d="M129.045 196.412L96.7829 175.983C88.4782 170.724 82.3349 166.832 78.4384 163.629C76.4899 162.027 75.1776 160.656 74.4361 159.434C73.7129 158.243 73.5668 157.257 73.8361 156.329C74.1053 155.401 74.756 154.646 76.0043 154.026C77.2842 153.391 79.1266 152.935 81.6297 152.624C86.6354 152.002 93.908 152 103.738 152L168.262 152C178.092 152 185.365 152.002 190.37 152.624C192.873 152.935 194.716 153.391 195.996 154.026C197.244 154.646 197.895 155.4 198.164 156.329C198.433 157.257 198.287 158.243 197.564 159.434C196.822 160.656 195.51 162.027 193.562 163.629C189.665 166.832 183.522 170.724 175.217 175.983L142.955 196.412C141.117 197.576 139.803 198.407 138.697 198.954C137.613 199.491 136.807 199.715 136 199.715C135.193 199.715 134.387 199.491 133.303 198.954C132.197 198.407 130.883 197.576 129.045 196.412Z" fill="black" stroke="black" stroke-width="2"/>
<path d="M67 1.99997H202V148C202 159.598 192.598 169 181 169H93C78.6406 169 67 157.359 67 143V1.99997Z" fill="black"/>
<path d="M67 1.99997H202V148C202 159.598 192.598 169 181 169H93C78.6406 169 67 157.359 67 143V1.99997Z" stroke="#FF00C7"/>
<path d="M0 1.99997H56H265" stroke="black" stroke-width="4"/>
<path d="M119.967 122.703C119.837 123.159 119.446 123.615 118.795 124.07C118.144 124.461 117.558 124.656 117.037 124.656C116.386 124.656 115.833 124.428 115.377 123.973C114.921 123.517 114.693 122.964 114.693 122.312C114.693 122.247 114.693 122.085 114.693 121.824C114.758 121.564 114.791 121.401 114.791 121.336L120.748 97.5078H119.967C117.558 98.4843 115.279 99.3633 113.131 100.145C110.982 100.926 108.671 101.316 106.197 101.316C105.156 101.316 104.179 101.121 103.268 100.73C102.421 100.275 101.673 99.6888 101.021 98.9726C100.436 98.1914 99.9473 97.345 99.5566 96.4336C99.2311 95.457 99.0684 94.4479 99.0684 93.4062C99.0684 91.388 99.4264 89.4349 100.143 87.5468C100.859 85.5937 101.868 83.8685 103.17 82.3711C104.537 80.8737 106.1 79.6692 107.857 78.7578C109.68 77.8463 111.666 77.3906 113.814 77.3906C115.507 77.3906 117.167 77.6185 118.795 78.0742C120.423 78.4648 121.92 79.2135 123.287 80.3203L124.166 78.3672L128.463 50.8281C128.593 50.3073 128.951 49.7864 129.537 49.2656C130.123 48.6797 130.644 48.3867 131.1 48.3867C132.271 48.3867 133.085 48.875 133.541 49.8515C134.062 50.763 134.322 51.7396 134.322 52.7812V53.1718L128.951 84.2265V86.375C129.081 86.375 129.179 86.4075 129.244 86.4726C129.374 86.5377 129.472 86.5377 129.537 86.4726C129.602 86.4726 129.732 86.4075 129.928 86.2773C130.188 86.082 130.449 85.8867 130.709 85.6914C131.035 85.4961 131.327 85.3008 131.588 85.1054C131.913 84.9101 132.141 84.7474 132.271 84.6172C132.337 84.6172 132.434 84.5846 132.564 84.5195C132.695 84.3893 132.792 84.2916 132.857 84.2265C136.959 81.2317 141.028 78.1393 145.064 74.9492C149.166 71.7591 153.007 68.3086 156.588 64.5976C157.044 64.1419 157.727 63.2304 158.639 61.8633C159.55 60.431 160.527 58.9661 161.568 57.4687C162.675 55.9713 163.717 54.6367 164.693 53.4648C165.67 52.2929 166.484 51.707 167.135 51.707C167.786 51.707 168.339 51.9349 168.795 52.3906C169.316 52.8463 169.576 53.4323 169.576 54.1484C169.576 54.2786 169.544 54.3763 169.479 54.4414C169.479 54.5065 169.479 54.5716 169.479 54.6367C169.479 54.7669 169.413 55.0273 169.283 55.4179C169.153 55.7435 169.055 55.9713 168.99 56.1015C168.795 56.4922 168.469 57.0455 168.014 57.7617C167.623 58.4127 167.2 59.0638 166.744 59.7148C166.354 60.3659 165.995 60.9518 165.67 61.4726C165.344 61.9284 165.182 62.1888 165.182 62.2539L152.877 74.6562L130.416 91.2578C130.156 91.5182 129.993 91.7135 129.928 91.8437C129.928 91.9088 129.928 92.1041 129.928 92.4297V92.9179C129.928 93.0481 129.96 93.1458 130.025 93.2109L148.482 121.043C148.613 121.629 148.84 122.117 149.166 122.508C149.492 122.898 149.817 123.289 150.143 123.68C150.468 124.005 150.729 124.396 150.924 124.852C151.184 125.242 151.314 125.73 151.314 126.316C151.314 127.033 151.184 127.423 150.924 127.488C150.729 127.618 150.273 127.684 149.557 127.684C148.84 127.684 148.157 127.488 147.506 127.098C146.855 126.707 146.236 126.219 145.65 125.633C145.064 124.982 144.544 124.298 144.088 123.582C143.697 122.801 143.404 122.117 143.209 121.531L126.217 100.34L119.967 122.703ZM103.756 92.039C103.756 93.2109 104.016 94.2851 104.537 95.2617C105.058 96.1731 105.969 96.6289 107.271 96.6289C108.574 96.6289 109.876 96.4661 111.178 96.1406C112.48 95.8151 113.749 95.3919 114.986 94.8711C116.223 94.3502 117.428 93.7643 118.6 93.1133C119.771 92.4622 120.878 91.8437 121.92 91.2578C121.92 91.1276 121.92 90.8672 121.92 90.4765C121.985 90.0208 122.018 89.7604 122.018 89.6953C122.018 88.5885 121.725 87.6119 121.139 86.7656C120.618 85.8541 119.934 85.1054 119.088 84.5195C118.307 83.8685 117.395 83.4127 116.354 83.1523C115.377 82.8268 114.4 82.664 113.424 82.664C112.122 82.664 110.885 82.8919 109.713 83.3476C108.541 83.8034 107.499 84.4544 106.588 85.3008C105.742 86.1471 105.058 87.1562 104.537 88.3281C104.016 89.4349 103.756 90.6718 103.756 92.039Z" fill="white"/>
<path d="M111 173C111 172.057 111 171.586 111.293 171.293C111.586 171 112.057 171 113 171H130.292C131.235 171 131.706 171 131.999 171.293C132.292 171.586 132.292 172.057 132.292 173V175.412C132.292 176.355 132.292 176.826 131.999 177.119C131.706 177.412 131.235 177.412 130.292 177.412H113C112.057 177.412 111.586 177.412 111.293 177.119C111 176.826 111 176.355 111 175.412V173Z" fill="#FFC700"/>
<path d="M131.978 173.689L133.4 182.071L129.715 179.616L126.03 177.16L131.978 173.689Z" fill="#FFC700"/>
<path d="M129.715 179.616L126.03 177.16L131.978 173.689L133.4 182.071L129.715 179.616ZM129.715 179.616L130.633 179.08" stroke="#FFC700"/>
<path d="M146.243 177.184L139.142 181.771L140.219 176.969L141.297 172.168L146.243 177.184Z" fill="#FF00C7"/>
<path d="M140.219 176.969L141.297 172.168L146.243 177.184L139.142 181.771L140.219 176.969ZM140.219 176.969L140.983 177.743" stroke="#FF00C7"/>
<path d="M139.934 172C139.934 171.448 140.382 171 140.934 171H159C159.552 171 160 171.448 160 172V177.24C160 177.793 159.552 178.24 159 178.24H140.934C140.382 178.24 139.934 177.793 139.934 177.24V172Z" fill="#FF00C7"/>
<path d="M111 11C111 10.0572 111 9.58579 111.293 9.29289C111.586 9 112.057 9 113 9L130.292 9C131.235 9 131.706 9 131.999 9.29289C132.292 9.58579 132.292 10.0572 132.292 11L132.292 13.9052C132.292 14.848 132.292 15.3194 131.999 15.6123C131.706 15.9052 131.235 15.9052 130.292 15.9052L113 15.9052C112.057 15.9052 111.586 15.9052 111.293 15.6123C111 15.3194 111 14.848 111 13.9052L111 11Z" fill="#FFC700"/>
<path d="M139.934 10C139.934 9.44772 140.382 9 140.934 9L159 9C159.552 9 160 9.44772 160 10L160 15.2404C160 15.7927 159.552 16.2404 159 16.2404L140.934 16.2404C140.382 16.2404 139.934 15.7927 139.934 15.2404L139.934 10Z" fill="#FF00C7"/>
<path d="M79 113C78.0572 113 77.5858 113 77.2929 112.707C77 112.414 77 111.943 77 111V93.7079C77 92.7651 77 92.2937 77.2929 92.0008C77.5858 91.7079 78.0572 91.7079 79 91.7079H81.9052C82.848 91.7079 83.3194 91.7079 83.6123 92.0008C83.9052 92.2937 83.9052 92.7651 83.9052 93.7079V111C83.9052 111.943 83.9052 112.414 83.6123 112.707C83.3194 113 82.848 113 81.9052 113H79Z" fill="#FFC700"/>
<path d="M78 84.0656C77.4477 84.0656 77 83.6178 77 83.0656V65C77 64.4477 77.4477 64 78 64H83.2404C83.7927 64 84.2404 64.4477 84.2404 65L84.2404 83.0656C84.2404 83.6178 83.7927 84.0656 83.2404 84.0656H78Z" fill="#FF00C7"/>
<path d="M181 113C180.057 113 179.586 113 179.293 112.707C179 112.414 179 111.943 179 111L179 93.7079C179 92.7651 179 92.2937 179.293 92.0008C179.586 91.7079 180.057 91.7079 181 91.7079L183.905 91.7079C184.848 91.7079 185.319 91.7079 185.612 92.0008C185.905 92.2937 185.905 92.7651 185.905 93.7079L185.905 111C185.905 111.943 185.905 112.414 185.612 112.707C185.319 113 184.848 113 183.905 113L181 113Z" fill="#FFC700"/>
<path d="M180 84.0656C179.448 84.0656 179 83.6178 179 83.0656L179 65C179 64.4477 179.448 64 180 64L185.24 64C185.793 64 186.24 64.4477 186.24 65L186.24 83.0656C186.24 83.6178 185.793 84.0656 185.24 84.0656L180 84.0656Z" fill="#FF00C7"/>
</svg>
